<svg width="60" height="60" viewBox="0 0 60 60" fill="none" xmlns="http://www.w3.org/2000/svg">
<path d="M17.8498 14.0294C17.8498 14.8795 18.5389 15.5685 19.389 15.5685C18.5389 15.5685 17.8498 16.2577 17.8498 17.1077C17.8498 16.2576 17.1606 15.5685 16.3106 15.5685C17.1606 15.5685 17.8498 14.8795 17.8498 14.0294Z" fill="#ED8F27"/>
<path d="M18.6312 18.5824H17.0689V17.1076C17.0689 16.6896 16.7288 16.3499 16.3107 16.3499H14.8359V14.7877H16.3107C16.7288 14.7877 17.0689 14.4474 17.0689 14.0294V12.5547H18.6312V14.0294C18.6312 14.4474 18.9708 14.7877 19.3889 14.7877V16.3499C18.9708 16.3499 18.6312 16.6896 18.6312 17.1076V18.5824ZM20.8637 16.3499H19.3889V14.7877H20.8637V16.3499Z" fill="#ED8F27"/>
<path d="M41.6553 10.4072C41.6553 11.1149 42.2289 11.6884 42.9365 11.6884C42.2289 11.6884 41.6553 12.2621 41.6553 12.9697C41.6553 12.2621 41.0816 11.6884 40.374 11.6884C41.0817 11.6884 41.6553 11.1149 41.6553 10.4072Z" fill="#ED8F27"/>
<path d="M42.3057 14.1972H41.0053V12.9696C41.0053 12.6217 40.7221 12.3389 40.3741 12.3389H39.1465V11.0385H40.3741C40.7221 11.0385 41.0053 10.7552 41.0053 10.4073V9.17969H42.3057V10.4073C42.3057 10.7552 42.5885 11.0385 42.9364 11.0385V12.3389C42.5885 12.3389 42.3057 12.6217 42.3057 12.9696V14.1972ZM44.164 12.3389H42.9364V11.0385H44.164V12.3389Z" fill="#ED8F27"/>
<path d="M47.885 16.389C47.885 16.8722 48.2768 17.2639 48.76 17.2639C48.2767 17.2639 47.885 17.6556 47.885 18.1389C47.885 17.6556 47.4933 17.2639 47.0101 17.2639C47.4933 17.2639 47.885 16.8722 47.885 16.389Z" fill="#ED8F27"/>
<path d="M48.3292 18.9775H47.4412V18.1392C47.4412 17.9016 47.2478 17.7081 47.0102 17.7081H46.1719V16.8201H47.0102C47.2478 16.8201 47.4412 16.6267 47.4412 16.3891V15.5508H48.3292V16.3891C48.3292 16.6267 48.5226 16.8201 48.7603 16.8201V17.7081C48.5226 17.7081 48.3292 17.9015 48.3292 18.1392V18.9775H48.3292ZM49.5985 17.7082H48.7602V16.8202H49.5985V17.7082Z" fill="#ED8F27"/>
<path d="M43.1139 32.3635V26.1836H18.0652V28.907H18.7535V32.3635H8.99414V48.3132H52.8472V32.3635H43.1139Z" fill="#ED8F27"/>
<path d="M11.252 34.9258H13.2224V37.5039H11.252V34.9258ZM15.0627 34.9258H17.0331V37.5039H15.0627V34.9258ZM15.0627 39.2629H17.0331V41.8411H15.0627V39.2629ZM11.252 39.2629H13.2224V41.8411H11.252V39.2629ZM44.5606 34.9258H46.5311V37.5039H44.5606V34.9258ZM48.3713 34.9258H50.3418V37.5039H48.3713V34.9258ZM48.3713 39.2629H50.3418V41.8411H48.3713V39.2629Z" fill="#228E9D"/>
<path d="M19.041 28.9062H43.1132V44.3142H19.041V28.9062Z" fill="#FCE3C3"/>
<path d="M44.5608 39.2621H46.5313V41.8402H44.5608V39.2621ZM28.2539 43.7655V36.3043C28.2539 36.3043 29.9936 32.9687 31.0652 34.0403C32.1369 35.112 33.7566 36.5088 33.7566 36.5088L33.457 43.6359L28.2539 43.7655Z" fill="#228E9D"/>
<path d="M18.0645 26.1837L30.8065 19.1328L43.0198 27.0018L18.0645 26.1837Z" fill="#B12800"/>
<path d="M25.8397 30.8762V28.7578H20.8517V30.8762H21.7825V41.6988H20.6973V43.9449H25.633V41.6988H24.8988V30.8762H25.8397ZM40.9303 30.8762V28.7578H35.9422V30.8762H36.8731V41.6988H35.7878V43.9449H40.7234V41.6988H39.9893V30.8762H40.9303Z" fill="#FCE3C3"/>
<path d="M18.0652 26.1836H44.0792V29.0017H18.0652V26.1836ZM43.8097 46.0228V44.315H17.6832V46.0228H17.0332V48.3132H44.7381V46.0228H43.8097Z" fill="#FCE3C3"/>
<path d="M29.5781 23.2416C29.5781 23.4206 29.6134 23.5978 29.6819 23.7631C29.7503 23.9284 29.8507 24.0787 29.9773 24.2052C30.1038 24.3317 30.254 24.4321 30.4194 24.5006C30.5847 24.5691 30.7619 24.6043 30.9408 24.6043C31.1198 24.6043 31.297 24.5691 31.4623 24.5006C31.6277 24.4321 31.7779 24.3317 31.9044 24.2052C32.031 24.0787 32.1313 23.9284 32.1998 23.7631C32.2683 23.5978 32.3036 23.4206 32.3036 23.2416C32.3036 22.8802 32.16 22.5336 31.9044 22.278C31.6489 22.0225 31.3023 21.8789 30.9408 21.8789C30.5794 21.8789 30.2328 22.0225 29.9773 22.278C29.7217 22.5336 29.5781 22.8802 29.5781 23.2416Z" fill="#ED8F27"/>
<path d="M34.0019 43.6314H32.9433V37.0105C32.9433 35.8361 31.9877 34.8805 30.8133 34.8805C29.6389 34.8805 28.6837 35.8361 28.6837 37.0105V43.6314H27.6251V37.0105C27.6251 35.2524 29.0552 33.8219 30.8133 33.8219C32.5715 33.8219 34.0019 35.2524 34.0019 37.0105V43.6314ZM18.5117 28.9072H19.5703V44.1169H18.5117V28.9072ZM42.0546 28.9072H43.1132V44.1169H42.0546V28.9072ZM25.6705 31.682H20.8505C20.5583 31.682 20.3212 31.4449 20.3212 31.1526V29.002C20.3212 28.7098 20.5582 28.4727 20.8505 28.4727H25.6705C25.9627 28.4727 26.1998 28.7097 26.1998 29.002V31.1526C26.1997 31.4449 25.9627 31.682 25.6705 31.682ZM21.3798 30.6233H25.1411V29.5313H21.3798V30.6233Z" fill="#300604"/>
<path d="M24.7781 42.4927H21.7518C21.6811 42.4927 21.6112 42.4786 21.5461 42.4511C21.4809 42.4237 21.422 42.3834 21.3727 42.3328C21.3234 42.2822 21.2848 42.2222 21.259 42.1564C21.2333 42.0906 21.221 42.0203 21.2228 41.9496L21.5068 31.1367C21.5102 30.9987 21.5675 30.8676 21.6663 30.7712C21.7651 30.6749 21.8977 30.621 22.0357 30.6211H24.4938C24.6318 30.621 24.7644 30.6749 24.8632 30.7712C24.962 30.8675 25.0193 30.9987 25.0228 31.1367L25.3071 41.9496C25.3089 42.0202 25.2966 42.0905 25.2708 42.1563C25.2451 42.2221 25.2064 42.2821 25.1571 42.3327C25.1078 42.3833 25.0489 42.4236 24.9838 42.4511C24.9187 42.4785 24.8487 42.4927 24.7781 42.4927ZM22.2952 41.4341H24.2346L23.9782 31.6798H22.5512L22.2952 41.4341Z" fill="#300604"/>
<path d="M25.6751 44.6441H20.8555C20.7151 44.6441 20.5805 44.5883 20.4812 44.489C20.382 44.3898 20.3262 44.2551 20.3262 44.1148V41.9634C20.3262 41.6712 20.5632 41.4341 20.8555 41.4341H25.6751C25.9673 41.4341 26.2045 41.6712 26.2045 41.9634V44.1148C26.2044 44.407 25.9673 44.6441 25.6751 44.6441ZM21.3848 43.5855H25.1458V42.4928H21.3848V43.5855ZM39.8727 42.4927H36.8457C36.7751 42.4927 36.7051 42.4786 36.64 42.4511C36.5749 42.4236 36.516 42.3834 36.4667 42.3327C36.4174 42.2821 36.3787 42.2221 36.353 42.1563C36.3273 42.0905 36.315 42.0202 36.3168 41.9496L36.6015 31.1367C36.6049 30.9987 36.6622 30.8675 36.761 30.7712C36.8599 30.6749 36.9924 30.621 37.1305 30.6211H39.5885C39.7265 30.621 39.8591 30.6749 39.9579 30.7712C40.0568 30.8675 40.114 30.9987 40.1174 31.1367L40.4017 41.9496C40.4036 42.0203 40.3913 42.0906 40.3655 42.1564C40.3398 42.2222 40.3011 42.2822 40.2518 42.3328C40.2025 42.3834 40.1435 42.4236 40.0784 42.4511C40.0133 42.4786 39.9434 42.4927 39.8727 42.4927ZM37.3892 41.4341H39.3293L39.0729 31.6798H37.6459L37.3892 41.4341Z" fill="#300604"/>
<path d="M40.765 31.682H35.9454C35.6531 31.682 35.416 31.4449 35.416 31.1526V29.002C35.416 28.7098 35.6531 28.4727 35.9454 28.4727H40.765C40.9054 28.4727 41.04 28.5285 41.1392 28.6277C41.2385 28.727 41.2943 28.8616 41.2943 29.002V31.1526C41.2943 31.293 41.2385 31.4276 41.1392 31.5269C41.04 31.6261 40.9054 31.6819 40.765 31.682ZM36.4747 30.6233H40.2357V29.5313H36.4747V30.6233ZM40.7688 44.6462H35.9496C35.8092 44.6462 35.6746 44.5904 35.5753 44.4912C35.476 44.3919 35.4203 44.2573 35.4202 44.1169V41.9656C35.4202 41.6734 35.6573 41.4362 35.9496 41.4362H40.7688C41.0611 41.4362 41.2982 41.6733 41.2982 41.9656V44.1169C41.2981 44.4091 41.0611 44.6462 40.7688 44.6462ZM36.4789 43.5876H40.2395V42.4949H36.4789V43.5876Z" fill="#300604"/>
<path d="M43.5496 29.5297H18.0645C17.7723 29.5297 17.5352 29.2927 17.5352 29.0004V26.7116C17.5352 26.6231 17.5574 26.536 17.5998 26.4582C17.6421 26.3805 17.7033 26.3147 17.7777 26.2667L30.5201 18.0569C30.6056 18.0019 30.7051 17.9727 30.8068 17.9727C30.9085 17.9727 31.008 18.0019 31.0935 18.0569L43.8362 26.2667C43.9106 26.3147 43.9718 26.3805 44.0142 26.4582C44.0566 26.536 44.0788 26.6231 44.0788 26.7116V29.0005C44.0788 29.2927 43.8418 29.5297 43.5496 29.5297ZM18.5938 28.4711H43.0202V27.0004L30.8069 19.1314L18.5938 27.0004V28.4711Z" fill="#300604"/>
<path d="M30.8095 25.0145C29.8106 25.0145 28.9976 24.2015 28.9976 23.2026C28.9976 22.2036 29.8105 21.3906 30.8095 21.3906C31.8089 21.3906 32.6221 22.2036 32.6221 23.2026C32.6221 24.2016 31.8089 25.0145 30.8095 25.0145ZM30.8095 22.4493C30.3943 22.4493 30.0562 22.7873 30.0562 23.2026C30.0562 23.6179 30.3942 23.9559 30.8095 23.9559C31.2252 23.9559 31.5635 23.6179 31.5635 23.2026C31.5635 22.7873 31.2251 22.4493 30.8095 22.4493ZM18.0648 26.181H43.5495V27.2396H18.0648V26.181ZM7.92383 31.5974H19.0414V32.656H7.92383V31.5974ZM42.5843 31.5974H53.7015V32.656H42.5843V31.5974ZM50.2444 37.8585H48.4411C48.1488 37.8585 47.9117 37.6214 47.9117 37.3292V35.0634C47.9117 34.923 47.9675 34.7884 48.0668 34.6892C48.1661 34.5899 48.3007 34.5341 48.4411 34.5341H50.2444C50.5366 34.5341 50.7737 34.7712 50.7737 35.0634V37.3292C50.7737 37.6214 50.5366 37.8585 50.2444 37.8585ZM48.9704 36.7999H49.7151V35.5928H48.9704V36.7999ZM50.2444 42.2136H48.4411C48.1488 42.2136 47.9117 41.9765 47.9117 41.6843V39.4188C47.9117 39.1266 48.1488 38.8895 48.4411 38.8895H50.2444C50.5366 38.8895 50.7737 39.1265 50.7737 39.4188V41.6843C50.7737 41.9765 50.5366 42.2136 50.2444 42.2136ZM48.9704 41.155H49.7151V39.9482H48.9704V41.155ZM46.3593 37.8585H44.5563C44.2641 37.8585 44.027 37.6214 44.027 37.3292V35.0634C44.027 34.923 44.0828 34.7884 44.1821 34.6892C44.2813 34.5899 44.416 34.5341 44.5563 34.5341H46.3593C46.6515 34.5341 46.8887 34.7712 46.8887 35.0634V37.3292C46.8886 37.6214 46.6515 37.8585 46.3593 37.8585ZM45.0857 36.7999H45.8301V35.5928H45.0857V36.7999ZM46.3593 42.2136H44.5563C44.2641 42.2136 44.027 41.9765 44.027 41.6843V39.4188C44.027 39.1266 44.2641 38.8895 44.5563 38.8895H46.3593C46.6515 38.8895 46.8887 39.1265 46.8887 39.4188V41.6843C46.8886 41.9765 46.6515 42.2136 46.3593 42.2136ZM45.0857 41.155H45.8301V39.9482H45.0857V41.155ZM17.0186 37.8585H15.2149C14.9227 37.8585 14.6855 37.6214 14.6855 37.3292V35.0634C14.6856 34.923 14.7414 34.7884 14.8406 34.6892C14.9399 34.5899 15.0745 34.5341 15.2149 34.5341H17.0186C17.3108 34.5341 17.5479 34.7712 17.5479 35.0634V37.3292C17.5479 37.6214 17.3108 37.8585 17.0186 37.8585ZM15.7442 36.7999H16.4893V35.5928H15.7442V36.7999ZM17.0186 42.2136H15.2149C14.9227 42.2136 14.6855 41.9765 14.6855 41.6843V39.4188C14.6855 39.1266 14.9226 38.8895 15.2149 38.8895H17.0186C17.3108 38.8895 17.5479 39.1265 17.5479 39.4188V41.6843C17.5479 41.9765 17.3108 42.2136 17.0186 42.2136ZM15.7442 41.155H16.4893V39.9482H15.7442V41.155ZM13.1335 37.8585H11.3305C11.0383 37.8585 10.8012 37.6214 10.8012 37.3292V35.0634C10.8012 34.923 10.857 34.7884 10.9563 34.6892C11.0555 34.5899 11.1901 34.5341 11.3305 34.5341H13.1335C13.4257 34.5341 13.6629 34.7712 13.6629 35.0634V37.3292C13.6628 37.6214 13.4257 37.8585 13.1335 37.8585ZM11.8599 36.7999H12.6042V35.5928H11.8599V36.7999ZM13.1335 42.2136H11.3305C11.0383 42.2136 10.8012 41.9765 10.8012 41.6843V39.4188C10.8012 39.1266 11.0383 38.8895 11.3305 38.8895H13.1335C13.4257 38.8895 13.6629 39.1265 13.6629 39.4188V41.6843C13.6628 41.9765 13.4257 42.2136 13.1335 42.2136ZM11.8599 41.155H12.6042V39.9482H11.8599V41.155ZM43.5605 46.7417H18.0565C17.7643 46.7417 17.5272 46.5046 17.5272 46.2123V44.114C17.5272 43.8218 17.7642 43.5847 18.0565 43.5847H43.5605C43.8527 43.5847 44.0898 43.8218 44.0898 44.114V46.2123C44.0898 46.5046 43.8527 46.7417 43.5605 46.7417ZM18.5858 45.6831H43.0312V44.6434H18.5858V45.6831Z" fill="#300604"/>
<path d="M44.7477 48.8406H16.8711C16.7308 48.8405 16.5961 48.7848 16.4969 48.6855C16.3976 48.5862 16.3418 48.4516 16.3418 48.3112V46.2129C16.3418 45.9207 16.5789 45.6836 16.8711 45.6836H44.7477C45.0399 45.6836 45.277 45.9207 45.277 46.2129V48.3112C45.277 48.6035 45.0399 48.8406 44.7477 48.8406ZM17.4005 47.782H44.2184V46.7423H17.4005V47.782Z" fill="#300604"/>
<path d="M16.8599 48.8434H16.8592L9.29621 48.8324C9.15581 48.8321 9.02125 48.7762 8.92197 48.677C8.82299 48.5774 8.76747 48.4427 8.76758 48.3024L8.79137 32.1185C8.79166 31.9781 8.84753 31.8435 8.94676 31.7442C9.04605 31.6453 9.1805 31.5898 9.32065 31.5898H9.32135L19.055 31.6043C19.3476 31.6047 19.5839 31.8421 19.5836 32.1344L19.5663 44.1217C19.566 44.4139 19.3289 44.6503 19.037 44.6503H19.0363L18.5811 44.6496L18.5786 46.2186C18.5783 46.5105 18.3412 46.7469 18.0493 46.7469H18.0487L17.3915 46.7459L17.3891 48.3152C17.3889 48.607 17.1518 48.8434 16.8599 48.8434ZM9.8269 47.7744L16.3316 47.7841L16.334 46.2148C16.3344 45.9229 16.5714 45.6865 16.8634 45.6865H16.8641L17.5212 45.6876L17.5236 44.1186C17.5239 43.8267 17.7611 43.5903 18.0529 43.5903H18.0536L18.5085 43.591L18.5243 32.6623L9.84934 32.6492L9.8269 47.7744ZM52.3187 48.8396H44.7482C44.456 48.8396 44.2188 48.6025 44.2188 48.3103V46.7413H43.5617C43.4213 46.7413 43.2867 46.6855 43.1875 46.5862C43.0882 46.487 43.0324 46.3523 43.0324 46.212V44.643H42.5854C42.4451 44.643 42.3104 44.5872 42.2112 44.4879C42.1119 44.3887 42.0561 44.2541 42.0561 44.1137V32.1264C42.0561 31.8342 42.2932 31.5971 42.5854 31.5971H52.3187C52.6109 31.5971 52.8481 31.8342 52.8481 32.1264V48.3103C52.8481 48.6025 52.6109 48.8396 52.3187 48.8396ZM45.2775 47.781H51.7894V32.6557H43.1148V43.5845H43.5617C43.8539 43.5845 44.0911 43.8215 44.0911 44.1138V45.6828H44.7482C45.0404 45.6828 45.2775 45.9198 45.2775 46.2121L45.2775 47.781Z" fill="#300604"/>
<path d="M30.1777 12.3867H31.3323V18.2327H30.1777V12.3867Z" fill="#300604"/>
<path d="M30.7559 12.7383H34.8399V15.9184H30.7559V12.7383Z" fill="#B12800"/>
<path d="M35.226 16.3045H30.3691V12.3516H35.226V16.3045ZM31.1419 15.5317H34.4531V13.1244H31.1419V15.5317Z" fill="#300604"/>
</svg>
