<svg width="19" height="19" viewBox="0 0 19 19" fill="none" xmlns="http://www.w3.org/2000/svg">
<g clip-path="url(#clip0_2360_3574)">
<path d="M18.7618 5.47459C18.7198 4.5219 18.5658 3.86694 18.3451 3.2994C18.1174 2.69698 17.7671 2.15762 17.3082 1.70926C16.8599 1.25392 16.317 0.900095 15.7215 0.675981C15.1507 0.455288 14.4991 0.301226 13.5464 0.259222C12.5866 0.21366 12.2819 0.203125 9.84761 0.203125C7.41328 0.203125 7.10857 0.21366 6.15233 0.255665C5.19964 0.297669 4.54467 0.451867 3.97727 0.672424C3.37471 0.900095 2.83536 1.25036 2.38699 1.70926C1.93165 2.15762 1.57797 2.70053 1.35372 3.29598C1.13302 3.86694 0.978961 4.51835 0.936956 5.47104C0.891395 6.43084 0.880859 6.73554 0.880859 9.16988C0.880859 11.6042 0.891395 11.9089 0.933399 12.8652C0.975403 13.8178 1.1296 14.4728 1.35029 15.0404C1.57797 15.6428 1.93165 16.1821 2.38699 16.6305C2.83536 17.0858 3.37827 17.4397 3.97372 17.6638C4.54467 17.8845 5.19608 18.0385 6.14891 18.0805C7.10502 18.1227 7.40986 18.1331 9.84419 18.1331C12.2785 18.1331 12.5832 18.1227 13.5395 18.0805C14.4922 18.0385 15.1471 17.8845 15.7145 17.6638C16.9195 17.1979 17.8722 16.2452 18.3381 15.0404C18.5586 14.4694 18.7128 13.8178 18.7548 12.8652C18.7968 11.9089 18.8074 11.6042 18.8074 9.16988C18.8074 6.73554 18.8038 6.43084 18.7618 5.47459ZM17.1472 12.7951C17.1086 13.6708 16.9615 14.1436 16.8389 14.4589C16.5376 15.24 15.9177 15.8599 15.1366 16.1612C14.8214 16.2838 14.3451 16.4309 13.4728 16.4693C12.5271 16.5115 12.2435 16.5219 9.85117 16.5219C7.45884 16.5219 7.17165 16.5115 6.22936 16.4693C5.3537 16.4309 4.88084 16.2838 4.56561 16.1612C4.1769 16.0175 3.82307 15.7899 3.53589 15.4921C3.23816 15.2014 3.01049 14.8511 2.86683 14.4624C2.74423 14.1472 2.59715 13.6708 2.5587 12.7987C2.51656 11.853 2.50616 11.5692 2.50616 9.17685C2.50616 6.78453 2.51656 6.49734 2.5587 5.55518C2.59715 4.67952 2.74423 4.20667 2.86683 3.89143C3.01049 3.50258 3.23816 3.1489 3.53944 2.86157C3.83005 2.56385 4.18032 2.33618 4.56916 2.19265C4.8844 2.07006 5.36081 1.92297 6.23292 1.88439C7.17863 1.84239 7.4624 1.83185 9.85459 1.83185C12.2505 1.83185 12.5341 1.84239 13.4764 1.88439C14.3521 1.92297 14.8249 2.07006 15.1401 2.19265C15.5289 2.33618 15.8827 2.56385 16.1699 2.86157C16.4676 3.15232 16.6953 3.50258 16.8389 3.89143C16.9615 4.20667 17.1086 4.68294 17.1472 5.55518C17.1892 6.50089 17.1997 6.78453 17.1997 9.17685C17.1997 11.5692 17.1892 11.8494 17.1472 12.7951Z" fill="white"/>
<path d="M9.84718 4.5625C7.30435 4.5625 5.24121 6.6255 5.24121 9.16847C5.24121 11.7114 7.30435 13.7744 9.84718 13.7744C12.3901 13.7744 14.4531 11.7114 14.4531 9.16847C14.4531 6.6255 12.3901 4.5625 9.84718 4.5625ZM9.84718 12.1562C8.19752 12.1562 6.8594 10.8183 6.8594 9.16847C6.8594 7.51867 8.19752 6.18069 9.84718 6.18069C11.497 6.18069 12.835 7.51867 12.835 9.16847C12.835 10.8183 11.497 12.1562 9.84718 12.1562Z" fill="white"/>
<path d="M15.7112 4.37997C15.7112 4.97378 15.2298 5.45525 14.6358 5.45525C14.042 5.45525 13.5605 4.97378 13.5605 4.37997C13.5605 3.78603 14.042 3.30469 14.6358 3.30469C15.2298 3.30469 15.7112 3.78603 15.7112 4.37997Z" fill="white"/>
</g>
<defs>
<clipPath id="clip0_2360_3574">
<rect x="0.849609" y="0.203125" width="17.93" height="17.93" rx="4" fill="white"/>
</clipPath>
</defs>
</svg>
