<svg width="24" height="25" viewBox="0 0 24 25" fill="none" xmlns="http://www.w3.org/2000/svg">
<path d="M22.0004 17.092V20.092C22.0016 20.3705 21.9445 20.6461 21.8329 20.9013C21.7214 21.1565 21.5577 21.3856 21.3525 21.5738C21.1473 21.7621 20.905 21.9055 20.6412 21.9947C20.3773 22.0839 20.0978 22.117 19.8204 22.092C16.7433 21.7576 13.7874 20.7061 11.1904 19.022C8.77425 17.4866 6.72576 15.4381 5.19042 13.022C3.5004 10.4132 2.44866 7.44297 2.12042 4.35197C2.09543 4.07544 2.1283 3.79673 2.21692 3.5336C2.30555 3.27046 2.44799 3.02866 2.63519 2.82359C2.82238 2.61852 3.05023 2.45468 3.30421 2.34249C3.5582 2.23031 3.83276 2.17223 4.11042 2.17197H7.11042C7.59573 2.1672 8.06621 2.33905 8.43418 2.6555C8.80215 2.97196 9.0425 3.41142 9.11042 3.89197C9.23704 4.85204 9.47187 5.7947 9.81042 6.70197C9.94497 7.0599 9.97408 7.44889 9.89433 7.82285C9.81457 8.19682 9.62928 8.54008 9.36042 8.81197L8.09042 10.082C9.51398 12.5855 11.5869 14.6584 14.0904 16.082L15.3604 14.812C15.6323 14.5431 15.9756 14.3578 16.3495 14.2781C16.7235 14.1983 17.1125 14.2274 17.4704 14.362C18.3777 14.7005 19.3204 14.9353 20.2804 15.062C20.7662 15.1305 21.2098 15.3752 21.527 15.7495C21.8441 16.1238 22.0126 16.6015 22.0004 17.092Z" stroke="black" stroke-width="2" stroke-linecap="round" stroke-linejoin="round"/>
</svg>
