<svg width="60" height="56" viewBox="0 0 60 56" fill="none" xmlns="http://www.w3.org/2000/svg">
<path id="&#226;&#128;&#156;" d="M22.2212 31.1991V55.2604H0.00195312V36.2646C0.00195312 25.9801 1.22996 18.5353 3.68598 13.9302C6.90951 7.79018 12.0134 3.14677 18.9977 0L24.0633 8.05881C19.842 9.82407 16.7336 12.472 14.7381 16.0025C12.7425 19.4563 11.6297 24.5218 11.3994 31.1991H22.2212ZM57.9103 31.1991V55.2604H35.691V36.2646C35.691 25.9801 36.919 18.5353 39.375 13.9302C42.5985 7.79018 47.7024 3.14677 54.6867 0L59.7523 8.05881C55.531 9.82407 52.4226 12.472 50.4271 16.0025C48.4316 19.4563 47.3187 24.5218 47.0884 31.1991H57.9103Z" fill="#ED2023"/>
</svg>
